<svg xmlns="http://www.w3.org/2000/svg" viewBox="0 0 1000 1000">
    <path
        d="M 404 275.981 C 404 258.281 418.3 243.981 436 243.981 L 564 243.981 C 581.7 243.981 596 258.281 596 275.981 L 596 307.981 L 644 307.981 C 670.5 307.981 692 329.481 692 355.981 L 692 483.981 L 736.4 498.781 C 759.5 506.481 765.9 536.281 747.9 552.681 L 646.9 645.281 C 630.7 654.681 612.2 660.381 596 660.381 C 576.4 660.381 555.2 652.681 536.8 640.081 C 514.7 624.581 485.2 624.581 463.1 640.081 C 446 651.881 425.1 660.381 403.9 660.381 C 387.7 660.381 369.2 654.681 353 645.281 L 252 552.681 C 234 536.181 240.4 506.481 263.5 498.781 L 308 483.981 L 308 355.981 C 308 329.481 329.5 307.981 356 307.981 L 404 307.981 Z M 372 462.681 L 479.8 426.781 C 492.9 422.381 507.1 422.381 520.3 426.781 L 628 462.681 L 628 371.981 L 372 371.981 Z"
        stroke="none"
        fill="white" />

    <path
        d="M 518.5 665.881 C 541 681.381 568.5 691.981 596 691.981 C 622.9 691.981 651.4 681.181 673.4 665.881 C 685.3 657.381 701.5 658.081 712.6 667.581 C 727 679.481 745.1 688.581 763.2 692.781 C 780.4 696.781 791.1 713.981 787.1 731.181 C 783.1 748.381 765.9 759.081 748.7 755.081 C 724.2 749.381 703.8 738.581 690.5 730.081 C 661.5 745.681 629 755.981 596 755.981 C 564.1 755.981 535.4 746.081 515.6 737.081 C 509.8 734.381 504.5 731.781 500 729.381 C 495.5 731.781 490.3 734.481 484.4 737.081 C 464.6 746.081 435.9 755.981 404 755.981 C 371 755.981 338.5 745.681 309.5 730.181 C 296.1 738.581 275.8 749.481 251.3 755.181 C 234.1 759.181 216.9 748.481 212.9 731.281 C 208.9 714.081 219.6 696.881 236.8 692.881 C 254.9 688.681 273 679.581 287.4 667.681 C 298.5 658.281 314.7 657.581 326.6 665.981 C 348.7 681.181 377.1 691.981 404 691.981 C 431.5 691.981 459 681.381 481.5 665.881 C 492.6 657.981 507.4 657.981 518.5 665.881 Z"
        stroke="none"
        fill="white" />

    <path
        d="M 500 50 L 500 200 M 500 800 L 500 950 M 50 500 L 200 500 M 800 500 L 950 500 M 125 500 C 125.00000000000003 788.6751345948128 437.5 969.097093716571 687.5 824.7595264191646 C 803.5254037844387 757.7722283113839 875 633.9745962155614 875 500 C 875 211.3248654051872 562.5000000000001 30.902906283429132 312.5000000000001 175.2404735808355 C 196.4745962155614 242.22777168861614 125.00000000000001 366.0254037844386 125 500"
        fill="none"
        stroke="white"
        stroke-width="60"
        stroke-linecap="round" />
    <style>@media (prefers-color-scheme: light) { svg { filter: invert(1); } }
        @media (prefers-color-scheme: dark) { svg { filter: invert(0); } }
    </style>
</svg>