<?xml version="1.0" standalone="no"?>
<!DOCTYPE svg PUBLIC "-//W3C//DTD SVG 20010904//EN"
 "http://www.w3.org/TR/2001/REC-SVG-20010904/DTD/svg10.dtd">
<svg version="1.0" xmlns="http://www.w3.org/2000/svg"
 width="700.000000pt" height="700.000000pt" viewBox="0 0 700.000000 700.000000"
 preserveAspectRatio="xMidYMid meet">
<metadata>
Created by potrace 1.14, written by Peter Selinger 2001-2017
</metadata>
<g transform="translate(0.000000,700.000000) scale(0.100000,-0.100000)"
fill="#000000" stroke="none">
<path d="M3414 6841 c-49 -22 -100 -79 -113 -128 -6 -21 -11 -116 -11 -210 0
-172 0 -173 -22 -174 -28 -1 -55 -4 -128 -13 -584 -74 -1161 -350 -1593 -762
-137 -131 -346 -377 -388 -457 -7 -12 -15 -24 -19 -27 -11 -8 -137 -224 -179
-309 -115 -228 -222 -557 -255 -786 -4 -23 -8 -52 -11 -65 -5 -28 -17 -131
-20 -170 l-1 -25 -194 -5 c-215 -6 -231 -10 -287 -74 -85 -96 -63 -239 49
-313 41 -28 44 -28 236 -33 l195 -5 3 -30 c8 -85 15 -143 18 -165 3 -14 7 -43
10 -65 7 -51 13 -81 32 -164 9 -36 17 -73 19 -81 23 -100 91 -296 155 -440
198 -448 540 -865 940 -1144 52 -36 100 -69 105 -74 49 -37 317 -180 430 -229
114 -49 348 -128 435 -148 96 -21 279 -55 330 -61 36 -4 74 -8 85 -10 11 -1
28 -3 38 -3 15 -1 17 -17 17 -183 0 -161 2 -186 20 -223 40 -84 109 -125 200
-121 65 3 106 22 148 70 45 51 52 91 52 284 l0 172 28 1 c15 1 36 3 47 4 11 1
47 5 80 9 33 4 78 11 100 16 22 5 58 11 80 14 22 4 92 20 155 37 375 100 711
262 1015 492 44 33 82 63 85 66 3 3 37 34 77 68 183 161 353 356 484 558 33
50 62 95 66 101 65 89 236 462 268 584 3 8 16 53 30 100 14 46 32 118 41 160
21 99 21 98 29 150 4 25 9 52 10 60 4 21 17 140 19 170 l2 25 194 5 c211 5
228 10 282 67 79 84 75 216 -9 295 -51 49 -98 58 -289 58 -132 0 -174 3 -175
13 0 6 -2 20 -4 30 -2 10 -6 46 -9 80 -4 35 -9 74 -11 87 -3 14 -7 43 -10 65
-3 22 -7 47 -10 55 -2 8 -6 27 -9 42 -9 52 -48 203 -73 283 -194 612 -594
1138 -1143 1500 -330 218 -733 377 -1100 435 -41 6 -84 13 -96 15 -11 2 -50 6
-87 10 l-67 7 0 177 c-1 227 -11 259 -105 319 -51 33 -133 39 -191 13z m-124
-1106 c0 -96 0 -177 0 -180 0 -3 6 -18 14 -34 74 -142 236 -174 342 -67 25 24
46 58 53 81 6 22 11 116 11 208 l0 168 48 -6 c95 -13 228 -37 287 -51 33 -8
69 -17 81 -19 106 -23 356 -123 503 -201 140 -75 343 -209 407 -269 6 -5 47
-41 90 -80 44 -38 115 -110 159 -158 44 -49 85 -94 91 -100 41 -45 172 -235
221 -322 155 -271 269 -615 298 -895 3 -36 9 -73 11 -82 4 -15 -13 -17 -183
-20 -199 -3 -206 -5 -266 -58 -111 -97 -75 -286 65 -344 29 -12 76 -16 207
-16 126 0 170 -3 173 -12 7 -19 -36 -269 -66 -385 -62 -241 -183 -515 -316
-714 l-63 -97 -26 25 c-15 13 -63 35 -111 49 -109 33 -223 90 -308 152 -125
92 -194 94 -328 12 -264 -162 -508 -202 -759 -123 -87 27 -147 55 -255 117
-89 52 -113 61 -159 63 -63 2 -95 -10 -194 -71 -40 -24 -101 -56 -137 -71
-307 -129 -565 -99 -894 102 -76 46 -150 52 -223 19 -27 -13 -55 -30 -63 -38
-56 -54 -187 -121 -320 -162 -49 -15 -97 -37 -113 -52 l-27 -25 -57 88 c-192
294 -329 648 -369 952 -2 20 -8 65 -13 101 -5 36 -8 66 -7 67 1 1 81 3 179 3
199 2 228 9 285 74 92 105 54 272 -76 327 -37 16 -69 19 -217 19 l-173 0 4 33
c34 243 88 481 134 582 5 11 25 61 45 110 72 177 192 383 324 555 60 77 276
302 344 358 299 244 637 415 1002 506 33 8 76 17 95 20 19 3 46 8 60 11 14 3
48 8 75 11 28 4 51 7 52 8 1 1 16 3 33 4 l30 2 0 -175z m-846 -3964 c37 -11
78 -23 90 -25 11 -3 55 -11 96 -20 76 -15 328 -16 395 -1 17 3 50 11 75 16 53
11 161 45 210 66 19 8 44 19 55 23 11 5 46 21 78 35 l58 28 98 -46 c89 -41
251 -97 326 -111 17 -4 41 -9 55 -12 45 -11 314 -13 365 -3 28 5 61 11 75 14
90 16 282 85 367 132 l43 23 69 -38 c37 -22 110 -57 160 -78 l92 -39 -43 -38
c-78 -69 -269 -209 -360 -264 -239 -143 -510 -250 -768 -302 -94 -19 -104 -21
-145 -26 -22 -3 -59 -8 -82 -11 l-43 -6 0 175 c0 200 -10 238 -73 294 -105 92
-265 58 -327 -70 -15 -31 -18 -65 -20 -214 0 -98 -2 -179 -4 -180 -3 -3 -164
19 -241 33 -171 31 -442 122 -610 206 -176 88 -419 251 -544 365 l-44 40 54
21 c76 29 156 66 213 100 l50 29 105 -47 c58 -26 137 -57 175 -69z"/>
<path d="M3065 5289 c-118 -7 -168 -36 -210 -120 -21 -40 -24 -63 -27 -185
l-3 -139 -196 -1 c-165 0 -205 -3 -245 -19 -101 -37 -178 -117 -210 -215 -16
-50 -18 -101 -18 -527 l0 -471 -176 -58 c-162 -54 -178 -62 -221 -104 -35 -35
-49 -58 -59 -98 -25 -105 4 -166 131 -282 51 -47 118 -108 149 -136 72 -68 99
-92 211 -194 52 -47 123 -112 159 -146 115 -107 124 -114 189 -145 142 -68
275 -84 431 -55 56 11 168 62 265 121 113 68 191 90 296 82 86 -7 152 -30 230
-80 148 -94 247 -128 389 -133 213 -6 331 48 539 246 15 14 51 48 81 75 31 28
105 95 165 151 118 109 121 111 245 224 45 41 90 90 100 110 47 92 32 189 -39
260 -43 42 -59 50 -221 104 l-176 59 1 446 c0 245 -3 470 -7 499 -19 126 -101
224 -223 267 -41 14 -87 18 -245 19 l-195 1 -2 90 c-2 141 -6 188 -17 215 -20
49 -58 91 -107 116 l-50 25 -422 2 c-232 1 -462 -1 -512 -4z m1331 -1204 c0
-170 -1 -313 -2 -316 -2 -3 -183 54 -403 127 -430 143 -474 153 -581 128 -41
-10 -725 -234 -794 -260 -9 -3 -11 79 -10 313 1 175 2 318 3 318 0 0 403 0
894 0 l892 0 1 -310z"/>
</g>
</svg>
